<svg width="60" height="60" viewBox="0 0 60 60" xmlns="http://www.w3.org/2000/svg">
  <defs>
    <pattern id="paw-pattern" patternUnits="userSpaceOnUse" width="60" height="60">
      <path d="M10,10 C14,7 15,5 15,3 C15,1 13,0 11,0 C9,0 7,1 7,3 C7,5 8,7 10,10 Z" fill="#f0f0f0" transform="translate(20, 20)"/>
      <path d="M0,7 C2,10 5,11 7,11 C9,11 10,9 10,7 C10,5 9,3 7,3 C5,3 2,4 0,7 Z" fill="#f0f0f0" transform="translate(15, 25)"/>
      <path d="M0,7 C2,10 5,11 7,11 C9,11 10,9 10,7 C10,5 9,3 7,3 C5,3 2,4 0,7 Z" fill="#f0f0f0" transform="translate(25, 25)"/>
      <path d="M5,0 C3,-2 0,-3 -2,-3 C-4,-3 -5,-1 -5,1 C-5,3 -4,5 -2,5 C0,5 3,4 5,0 Z" fill="#f0f0f0" transform="translate(20, 35)"/>
    </pattern>
  </defs>
  <rect width="100%" height="100%" fill="url(#paw-pattern)" />
</svg> 